<svg id="reels" xmlns="http://www.w3.org/2000/svg" width="191" height="191" viewBox="0 0 191 191">
  <g id="Rectangle_1" data-name="Rectangle 1" fill="none" stroke="#000" stroke-width="5">
    <rect width="191" height="191" rx="40" stroke="none"/>
    <rect x="2.5" y="2.5" width="186" height="186" rx="37.5" fill="none"/>
  </g>
  <line id="Line_10" data-name="Line 10" x2="187.554" transform="translate(1.765 48.092)" fill="none" stroke="#000" stroke-width="5"/>
  <line id="Line_11" data-name="Line 11" x2="36.195" y2="46.066" transform="translate(44.54 2.026)" fill="none" stroke="#000" stroke-width="5"/>
  <line id="Line_12" data-name="Line 12" x2="36.195" y2="46.066" transform="translate(107.058 2.026)" fill="none" stroke="#000" stroke-width="5"/>
  <g id="Polygon_1" data-name="Polygon 1" transform="translate(132 83) rotate(90)">
    <path id="Path_5" data-name="Path 5" d="M30.748,3.18a2,2,0,0,1,3.5,0L63.367,56.035A2,2,0,0,1,61.615,59H3.385a2,2,0,0,1-1.752-2.965Z" fill="none"/>
    <path id="Path_6" data-name="Path 6" d="M32.5,10.363,8.463,54H56.537L32.5,10.363m0-8.218A1.98,1.98,0,0,1,34.252,3.18L63.367,56.035A2,2,0,0,1,61.615,59H3.385a2,2,0,0,1-1.752-2.965L30.748,3.18A1.98,1.98,0,0,1,32.5,2.145Z"/>
  </g>
</svg>
